<?xml version="1.0" encoding="UTF-8" standalone="no"?>
<!DOCTYPE svg PUBLIC "-//W3C//DTD SVG 20010904//EN"
              "http://www.w3.org/TR/2001/REC-SVG-20010904/DTD/svg10.dtd">

<svg xmlns="http://www.w3.org/2000/svg"
     width="0.722222in" height="0.544444in"
     viewBox="0 0 68 50">
  <path id="名前なし"
        fill="white"
        d="M 61.74,31.46
           C 61.85,31.57 62.84,31.88 62.84,31.67
             62.69,31.18 63.98,30.49 63.68,30.38
             63.03,30.28 62.04,29.48 62.12,29.13
             62.19,28.78 62.12,27.17 61.93,26.69
             60.94,24.77 55.05,25.12 53.22,26.79
             51.02,25.32 51.74,28.05 52.96,27.87
             52.92,27.87 52.92,29.09 53.07,29.79
             53.07,29.93 52.39,30.49 52.05,29.69
             51.21,25.92 48.25,23.69 46.57,22.85
             44.90,22.01 38.67,23.20 36.32,23.69
             33.96,24.18 20.20,27.94 20.20,27.94
             20.20,27.94 19.44,25.15 15.64,23.41
             9.11,20.48 3.18,16.78 3.86,14.69
             4.55,12.60 7.59,2.41 21.80,2.83
             39.05,3.74 34.19,15.32 20.05,18.04
             9.64,17.97 5.38,7.01 19.29,5.48
             34.64,5.20 27.73,15.39 19.97,15.59
             12.22,15.80 10.70,8.13 19.37,7.78
             28.03,7.43 23.62,13.50 20.51,13.64
             15.34,13.29 16.10,9.32 19.37,9.46
             22.64,9.60 22.10,11.62 19.90,11.62
             20.13,9.25 17.69,10.85 18.08,11.48
             19.18,13.22 24.16,11.30 23.40,10.01
             22.10,7.85 14.12,8.27 15.64,12.46
             17.16,16.64 28.49,13.99 26.05,9.11
             20.05,3.04 8.88,8.90 12.83,14.41
             16.02,20.20 33.81,14.20 29.85,7.43
             22.18,-1.70 -0.85,7.71 11.54,18.11
             15.12,20.63 22.33,19.15 25.79,18.35
             29.74,17.20 35.93,11.27 35.93,9.87
             35.74,8.86 34.64,4.50 31.45,2.69
             20.51,-4.08 -1.68,8.55 0.97,16.99
             3.64,25.43 20.28,28.50 20.51,29.48
             20.73,30.45 18.08,32.68 18.38,35.54
             18.68,38.40 15.80,41.68 13.44,42.17
             10.63,40.22 7.36,42.87 10.17,43.29
             12.98,43.71 12.15,44.75 12.98,45.94
             14.12,45.59 12.68,44.40 13.21,43.84
             13.74,43.29 14.73,45.17 15.11,44.96
             15.49,44.75 14.43,43.98 14.73,43.64
             15.04,43.29 16.63,44.54 16.63,44.40
             16.63,44.26 18.15,43.84 15.57,43.29
             17.39,42.73 20.89,39.52 21.19,37.15
             21.00,34.15 22.64,30.10 23.77,29.27
             24.92,28.43 28.11,28.15 28.11,28.15
             28.11,28.15 29.63,33.80 29.17,36.80
             28.72,39.80 23.24,44.33 20.13,45.10
             17.77,43.71 15.80,45.87 16.10,46.22
             18.84,46.01 21.49,49.01 21.88,48.66
             22.25,48.31 20.89,47.75 21.12,47.40
             21.34,47.05 22.86,48.17 23.17,47.89
             23.47,47.61 21.49,47.05 21.95,46.77
             22.41,46.50 23.47,47.54 23.77,47.33
             24.08,47.12 25.07,46.43 22.41,46.01
             37.26,40.18 32.74,32.02 31.45,27.31
             31.76,27.03 32.13,26.27 37.68,25.43
             46.27,22.78 49.54,28.39 50.83,31.25
             49.61,30.98 38.75,35.20 38.29,37.43
             37.84,39.66 40.88,45.10 41.03,46.29
             41.18,47.47 40.12,47.12 40.49,48.59
             40.95,50.26 42.89,50.85 43.42,50.30
             43.42,49.77 41.52,49.42 42.01,48.80
             42.17,49.63 49.54,50.12 49.46,49.36
             49.39,48.59 42.09,49.08 43.00,48.17
             47.79,48.66 50.07,47.37 50.00,46.81
             49.84,46.36 47.41,48.06 43.76,47.33
             43.92,46.43 48.74,47.02 48.74,46.11
             46.62,45.63 44.52,46.21 42.77,46.29
             42.85,45.31 40.19,40.15 40.27,38.13
             40.80,36.03 48.63,32.82 52.81,32.61
             52.58,34.29 57.90,35.06 60.03,32.68
             67.17,39.10 63.83,44.47 57.21,45.52
             56.61,41.47 50.11,43.64 50.60,43.91
             50.83,44.16 55.69,42.90 56.08,45.45
             55.58,45.14 51.13,43.84 50.98,44.54
             50.76,45.52 55.32,45.24 55.32,46.01
             55.32,46.77 50.53,44.75 50.22,45.73
             49.84,47.26 55.32,46.01 55.39,46.84
             55.47,47.68 51.29,47.40 51.06,48.03
             51.06,49.91 56.00,47.26 56.45,47.96
             56.91,48.66 55.54,49.22 55.69,49.49
             55.85,49.77 58.05,49.36 58.58,47.12
             64.89,45.24 71.65,37.36 61.55,31.78
             61.55,31.78 61.62,31.36 61.74,31.46 Z" />
</svg>
